<?xml version="1.0" standalone="no"?>
<!DOCTYPE svg PUBLIC "-//W3C//DTD SVG 20010904//EN"
 "http://www.w3.org/TR/2001/REC-SVG-20010904/DTD/svg10.dtd">
<svg version="1.0" xmlns="http://www.w3.org/2000/svg"
 width="270.000000pt" height="270.000000pt" viewBox="0 0 270.000000 270.000000"
 preserveAspectRatio="xMidYMid meet">
<metadata>
Created by potrace 1.14, written by Peter Selinger 2001-2017
</metadata>
<g transform="translate(0.000000,270.000000) scale(0.100000,-0.100000)"
fill="#000000" stroke="none">
<path d="M0 1600 c0 -919 2 -1099 14 -1094 7 3 28 25 46 49 18 24 45 49 61 55
28 12 42 36 37 61 -2 8 7 15 19 17 12 2 43 26 68 54 25 27 63 63 85 79 22 16
40 36 40 44 0 9 7 18 15 21 8 4 22 20 30 38 24 50 274 293 288 280 8 -8 -4
-77 -16 -92 -7 -9 -7 -16 1 -24 8 -8 13 -3 17 18 20 89 38 136 68 173 93 116
110 142 98 154 -15 15 -14 27 4 27 8 0 15 -8 15 -18 0 -20 27 -62 40 -62 5 0
4 13 -1 29 -13 36 15 107 55 142 48 42 139 62 164 37 9 -9 12 -9 12 0 0 7 -11
17 -24 24 -24 10 -38 8 -125 -18 -20 -6 -22 -4 -16 15 4 12 2 21 -4 21 -6 0
-11 -7 -11 -15 0 -8 -12 -17 -27 -21 -58 -12 -60 -14 -35 -33 21 -15 22 -20
11 -44 -11 -24 -18 -27 -63 -27 -41 0 -179 26 -195 37 -11 8 22 54 48 67 25
14 30 14 35 1 3 -8 16 -15 30 -15 14 0 28 -4 31 -10 3 -5 16 -10 28 -10 22 1
22 1 3 15 -11 8 -30 15 -42 15 -36 0 -38 18 -5 59 22 27 42 41 73 48 34 9 37
11 16 12 -16 0 -28 7 -28 15 0 16 44 83 72 110 19 18 19 18 0 40 -33 36 -113
197 -109 220 3 20 4 20 16 -5 10 -21 78 -69 97 -69 14 0 0 22 -21 32 -14 6
-25 18 -25 27 0 12 2 13 8 3 10 -15 42 -5 42 14 0 7 12 20 27 28 16 9 21 16
13 16 -12 0 -11 4 4 15 17 13 18 15 2 21 -9 3 -15 13 -14 22 2 9 -5 18 -14 20
-12 2 -18 -3 -18 -15 0 -10 -5 -34 -10 -54 -9 -31 -14 -36 -42 -37 -53 -1 -71
14 -65 56 6 49 39 137 60 160 9 10 17 25 17 33 1 22 25 49 45 49 10 0 33 10
52 21 28 17 55 22 141 26 59 3 108 9 110 13 2 5 11 5 20 0 15 -9 80 -25 185
-47 19 -4 27 -1 27 8 0 8 22 32 47 54 26 22 68 61 94 88 49 50 69 58 69 29 0
-10 6 -24 13 -31 10 -11 9 -13 -4 -8 -27 9 -58 -20 -64 -61 -4 -20 -11 -47
-17 -59 -12 -25 -4 -43 20 -43 9 0 37 -11 60 -25 24 -14 48 -23 53 -20 4 3 29
-15 55 -40 52 -52 87 -69 121 -60 13 3 23 2 23 -3 0 -16 47 -31 59 -19 17 17
25 0 29 -66 3 -61 3 -63 -42 -117 -55 -66 -42 -80 19 -20 37 36 48 42 72 36
33 -8 31 -8 108 0 33 4 66 11 72 16 20 16 63 1 63 -23 0 -24 -28 -69 -44 -69
-6 0 -20 -15 -30 -32 -32 -55 -222 -234 -297 -280 -60 -37 -69 -46 -64 -66 8
-32 -9 -57 -54 -83 -22 -12 -42 -31 -45 -42 -8 -30 1 -33 27 -10 26 24 107 67
107 56 0 -4 5 -2 12 5 7 7 18 12 26 12 8 0 27 9 43 21 33 23 59 19 59 -8 0
-10 -32 -49 -70 -88 -39 -38 -92 -91 -118 -117 -50 -51 -42 -67 10 -21 80 73
189 190 194 210 3 11 1 29 -4 40 -5 10 -12 42 -16 71 -8 65 6 68 59 15 49 -49
53 -79 20 -139 -15 -27 -31 -53 -36 -59 -5 -5 -9 -18 -9 -30 1 -19 2 -19 14
-3 23 30 25 8 5 -45 -51 -133 -104 -222 -172 -288 -60 -59 -74 -67 -116 -72
-62 -7 -88 0 -96 26 l-6 22 -11 -22 c-6 -13 -15 -23 -20 -23 -5 0 -20 -11 -33
-24 -33 -33 -136 -96 -157 -96 -9 0 -20 -5 -24 -12 -5 -8 2 -9 24 -5 41 8 41
-6 0 -44 -65 -59 -138 -80 -138 -41 0 33 -15 45 -37 31 -26 -16 -53 -5 -53 21
0 11 -4 20 -10 20 -13 0 -13 -27 1 -36 6 -3 9 -15 6 -25 -3 -10 0 -20 5 -21 6
-2 8 -13 4 -26 -4 -12 -11 -20 -14 -18 -4 2 -16 -2 -27 -11 -19 -14 -19 -14 8
-8 23 6 27 4 27 -15 0 -18 -4 -21 -21 -17 -26 7 -72 -35 -63 -57 3 -9 3 -24
-1 -33 -4 -10 -7 -31 -6 -46 2 -15 -3 -34 -9 -42 -7 -8 -10 -20 -7 -27 3 -8 6
-6 6 5 1 10 6 15 11 12 6 -3 10 -1 10 4 0 6 5 11 10 11 6 0 5 -8 -2 -20 -20
-31 2 -37 27 -7 13 15 29 27 35 27 5 0 10 5 10 10 0 6 6 10 13 10 6 0 13 12
14 27 0 14 8 30 17 35 9 5 16 15 16 22 0 8 6 16 14 19 9 4 12 14 9 26 -4 16
-1 21 16 21 28 0 27 -19 -3 -61 -14 -19 -37 -54 -52 -79 -47 -77 -78 -110
-102 -110 -16 0 -21 -4 -16 -12 5 -8 0 -7 -11 2 -17 14 -17 13 -10 -9 6 -19 4
-23 -8 -18 -11 4 -24 -5 -39 -26 -69 -100 -101 -126 -180 -153 -42 -14 -91
-26 -110 -27 -18 -1 -37 -5 -43 -9 -5 -3 -30 -6 -54 -6 -24 -1 -62 -4 -83 -7
-33 -6 -38 -10 -38 -34 0 -14 -13 -53 -30 -86 -16 -33 -30 -63 -30 -67 0 -5
479 -8 1065 -8 l1065 0 0 1350 0 1350 -1350 0 -1350 0 0 -1100z m1744 1025
c-24 -18 -34 -19 -34 -1 0 8 10 16 23 18 31 5 34 0 11 -17z m-1003 -1140 c1
-16 -16 -16 -36 0 -19 15 -19 15 8 13 15 -2 28 -7 28 -13z m1839 -235 c0 -33
-43 -71 -61 -53 -15 15 9 71 34 76 12 2 23 5 25 6 1 0 2 -12 2 -29z m-1300
-615 c0 -8 -4 -15 -10 -15 -5 0 -10 7 -10 15 0 8 5 15 10 15 6 0 10 -7 10 -15z"/>
<path d="M1505 2410 c28 -12 78 -12 70 0 -3 6 -25 10 -48 9 -33 0 -38 -2 -22
-9z"/>
<path d="M1744 2320 c22 -78 19 -97 -19 -165 -27 -49 -49 -74 -83 -95 -33 -21
-41 -30 -27 -29 39 0 99 52 132 114 34 66 39 95 22 146 -14 41 -35 66 -25 29z"/>
<path d="M1915 2202 c-42 -8 -34 -19 13 -18 28 1 48 4 46 7 -6 10 -37 16 -59
11z"/>
<path d="M1971 2137 c-7 -19 -23 -45 -36 -57 -14 -13 -25 -29 -25 -35 0 -7
-18 -25 -40 -40 -50 -34 -55 -59 -9 -42 48 18 139 137 139 181 0 30 -19 25
-29 -7z"/>
<path d="M1420 2120 c0 -5 5 -10 11 -10 5 0 7 5 4 10 -3 6 -8 10 -11 10 -2 0
-4 -4 -4 -10z"/>
<path d="M1034 2076 c3 -23 12 -28 36 -21 24 8 17 19 -17 29 -16 5 -21 3 -19
-8z"/>
<path d="M1450 2076 c0 -9 5 -16 10 -16 6 0 10 4 10 9 0 6 -4 13 -10 16 -5 3
-10 -1 -10 -9z"/>
<path d="M1153 2053 c9 -2 25 -2 35 0 9 3 1 5 -18 5 -19 0 -27 -2 -17 -5z"/>
<path d="M1553 2045 c-15 -16 -16 -25 -5 -25 4 0 13 9 20 20 14 23 3 26 -15 5z"/>
<path d="M1426 2015 c-23 -42 -17 -52 19 -29 17 11 25 24 23 37 -5 33 -22 30
-42 -8z"/>
<path d="M955 2020 c3 -5 17 -10 31 -10 14 0 22 4 19 10 -3 6 -17 10 -31 10
-14 0 -22 -4 -19 -10z"/>
<path d="M1206 1991 c-3 -5 1 -11 9 -15 8 -3 15 -1 15 4 0 13 -18 22 -24 11z"/>
<path d="M1264 1985 c-14 -11 -15 -14 -4 -15 26 0 60 12 60 21 0 14 -34 10
-56 -6z"/>
<path d="M1504 1985 c-3 -8 -4 -20 -1 -27 3 -7 6 -3 6 9 1 12 7 24 14 26 9 4
9 6 -1 6 -7 1 -15 -6 -18 -14z"/>
<path d="M1080 1960 c-8 -5 -11 -12 -8 -16 10 -9 38 3 38 16 0 12 -10 13 -30
0z"/>
<path d="M1311 1941 c-10 -7 -10 -10 -1 -16 6 -4 16 -3 22 3 13 13 -4 23 -21
13z"/>
<path d="M1375 1940 c4 -6 11 -8 16 -5 14 9 11 15 -7 15 -8 0 -12 -5 -9 -10z"/>
<path d="M1415 1915 c-23 -22 -33 -45 -19 -45 12 0 72 55 68 62 -9 14 -24 9
-49 -17z"/>
<path d="M1760 1930 c-13 -8 -13 -10 2 -10 9 0 20 5 23 10 8 13 -5 13 -25 0z"/>
<path d="M1207 1919 c8 -8 19 -8 40 -1 28 10 28 10 -11 11 -29 1 -37 -2 -29
-10z"/>
<path d="M940 1911 c0 -5 7 -15 17 -22 15 -13 15 -12 4 9 -12 23 -21 28 -21
13z"/>
<path d="M1130 1913 c-14 -3 -29 -9 -35 -15 -7 -7 2 -8 30 -3 47 8 83 25 50
23 -11 0 -31 -3 -45 -5z"/>
<path d="M1045 1890 c-3 -5 1 -10 9 -10 9 0 16 5 16 10 0 6 -4 10 -9 10 -6 0
-13 -4 -16 -10z"/>
<path d="M1286 1830 c-16 -5 -61 -12 -100 -16 -64 -6 -68 -8 -42 -17 20 -7 40
-6 60 1 17 6 50 13 73 17 24 4 45 11 49 16 6 11 -1 10 -40 -1z"/>
<path d="M1566 1788 c-8 -32 -8 -38 3 -38 14 0 24 41 13 52 -6 6 -12 1 -16
-14z"/>
<path d="M1372 1758 c-14 -14 -16 -28 -2 -28 5 0 14 9 20 20 12 22 1 27 -18 8z"/>
<path d="M1150 1736 c0 -17 53 -96 61 -90 17 10 9 30 -26 64 -19 19 -35 30
-35 26z"/>
<path d="M1503 1643 c-20 -43 -36 -84 -35 -90 4 -18 -2 -17 -56 12 -57 31 -89
33 -49 4 35 -26 34 -40 -3 -62 -16 -10 -35 -27 -40 -38 -13 -23 -30 -16 -30
12 0 10 -5 19 -11 19 -8 0 -10 -12 -6 -36 5 -31 3 -37 -14 -41 -19 -5 -18 -7
8 -24 16 -11 37 -16 49 -13 12 3 25 1 28 -5 4 -6 16 -11 27 -11 10 0 19 -7 19
-15 0 -11 -7 -14 -25 -9 -20 5 -25 2 -25 -14 0 -11 7 -25 15 -32 28 -23 28
-73 1 -129 -23 -48 -26 -88 -6 -76 10 6 50 134 48 155 -6 74 21 110 83 110 45
0 45 14 -1 23 -18 4 -30 13 -30 22 0 17 -16 20 -25 5 -7 -12 -73 -3 -92 12
-21 17 -2 31 33 25 26 -4 34 -2 34 9 0 8 -4 13 -9 9 -5 -3 -12 -1 -16 5 -3 6
1 13 10 16 13 6 14 8 3 15 -10 7 -8 9 7 11 68 6 81 13 95 51 7 18 21 49 32 70
19 37 33 87 23 87 -2 0 -21 -35 -42 -77z"/>
<path d="M1333 1698 c-6 -7 -13 -22 -16 -33 -6 -17 -4 -17 13 4 11 13 20 27
20 32 0 12 -6 11 -17 -3z"/>
<path d="M1245 1589 c-11 -17 1 -21 15 -4 8 9 8 15 2 15 -6 0 -14 -5 -17 -11z"/>
<path d="M1829 1590 c-14 -8 -148 -43 -222 -57 -32 -6 -44 -21 -24 -29 15 -6
147 27 199 49 89 38 103 46 83 46 -11 0 -27 -4 -36 -9z"/>
<path d="M1206 1554 c-9 -23 -7 -54 3 -54 5 0 7 8 4 19 -3 10 0 22 6 25 13 9
15 26 2 26 -5 0 -12 -7 -15 -16z"/>
<path d="M1435 1490 c-3 -5 1 -10 9 -10 8 0 18 5 21 10 3 6 -1 10 -9 10 -8 0
-18 -4 -21 -10z"/>
<path d="M1530 1452 c0 -6 -3 -17 -6 -26 -4 -12 0 -16 16 -16 16 0 21 5 18 22
-3 21 -28 39 -28 20z"/>
<path d="M1751 1402 c-26 -34 -31 -48 -31 -94 0 -30 -5 -59 -12 -66 -16 -16
-4 -26 26 -18 23 6 24 9 19 62 -5 45 -2 64 17 100 29 59 21 65 -19 16z"/>
<path d="M1555 1190 c-22 -11 -65 -25 -95 -32 l-55 -13 42 -3 c27 -2 54 4 79
17 21 12 48 21 59 21 11 0 29 7 39 15 19 15 19 15 -5 14 -13 0 -42 -9 -64 -19z"/>
<path d="M1600 1160 c0 -5 12 -10 26 -10 14 0 23 4 19 10 -3 6 -15 10 -26 10
-10 0 -19 -4 -19 -10z"/>
<path d="M1502 1124 c-15 -10 -21 -22 -17 -34 3 -10 1 -21 -5 -25 -15 -9 -12
-25 4 -25 7 0 16 -9 19 -20 7 -28 27 -25 27 5 0 16 9 30 28 40 l27 16 -32 -6
c-30 -6 -33 -4 -33 19 0 16 6 26 15 26 8 0 15 5 15 10 0 15 -23 12 -48 -6z"/>
<path d="M665 1060 c-3 -5 -4 -14 -1 -19 3 -5 -1 -22 -9 -38 -8 -16 -17 -49
-20 -74 -3 -24 -11 -49 -18 -54 -43 -36 -138 -157 -134 -172 3 -14 7 -11 18
12 7 17 21 35 29 41 32 24 70 63 70 72 0 5 18 15 41 22 44 15 60 30 31 30 -17
0 -18 5 -11 58 4 31 12 73 18 92 6 19 11 36 11 37 0 8 -20 2 -25 -7z"/>
<path d="M1425 1006 c-16 -33 -16 -37 1 -65 19 -32 38 -43 28 -16 -4 8 -10 15
-14 15 -8 0 1 49 15 83 14 33 -14 17 -30 -17z"/>
<path d="M1295 1018 c-9 -24 -23 -109 -17 -103 12 12 39 115 31 115 -5 0 -12
-6 -14 -12z"/>
<path d="M920 975 c-19 -36 -8 -40 12 -4 9 16 14 29 9 29 -4 0 -14 -11 -21
-25z"/>
<path d="M882 917 c-9 -11 -10 -17 -2 -22 15 -9 23 -1 18 21 -3 15 -4 16 -16
1z"/>
<path d="M725 890 c-3 -5 1 -10 9 -10 9 0 16 5 16 10 0 6 -4 10 -9 10 -6 0
-13 -4 -16 -10z"/>
<path d="M1134 665 c-8 -36 -7 -45 4 -50 11 -4 12 -15 7 -43 -4 -20 -3 -34 1
-29 10 10 15 155 6 161 -4 2 -12 -15 -18 -39z"/>
<path d="M951 664 c-44 -36 -76 -100 -57 -111 8 -4 16 -19 18 -32 1 -14 9 -26
17 -29 8 -3 11 0 7 6 -3 6 14 32 39 58 29 32 41 52 35 58 -15 15 -12 29 5 22
8 -3 18 1 22 8 5 8 16 15 26 17 38 8 20 24 -29 27 -44 2 -56 -1 -83 -24z"/>
<path d="M432 664 c-7 -8 -12 -22 -10 -30 2 -11 9 -6 21 15 19 32 12 41 -11
15z"/>
<path d="M480 590 c-28 -28 -60 -104 -60 -141 0 -27 1 -28 28 -16 35 15 39 22
36 60 -7 78 18 110 50 65 9 -12 16 -17 16 -10 0 6 8 12 18 12 11 0 26 8 35 18
15 16 13 17 -16 17 -18 0 -44 4 -59 8 -21 6 -33 2 -48 -13z"/>
<path d="M810 580 c-12 -8 -9 -10 13 -10 16 0 26 4 22 10 -8 12 -16 12 -35 0z"/>
<path d="M1061 534 c0 -11 3 -14 6 -6 3 7 2 16 -1 19 -3 4 -6 -2 -5 -13z"/>
<path d="M1102 520 c0 -19 2 -27 5 -17 2 9 2 25 0 35 -3 9 -5 1 -5 -18z"/>
<path d="M1019 462 c-59 -63 -65 -72 -42 -72 11 0 26 14 38 37 11 20 26 43 34
50 7 8 11 16 9 18 -2 3 -20 -12 -39 -33z"/>
<path d="M1100 460 c0 -5 7 -7 15 -4 8 4 15 8 15 10 0 2 -7 4 -15 4 -8 0 -15
-4 -15 -10z"/>
<path d="M1016 374 c-9 -22 -8 -24 9 -18 8 4 15 12 15 20 0 19 -16 18 -24 -2z"/>
<path d="M960 330 c-23 -7 -23 -8 -3 -9 12 -1 25 4 28 9 3 6 5 10 3 9 -2 -1
-14 -5 -28 -9z"/>
<path d="M840 310 c8 -5 31 -9 50 -9 l35 1 -30 8 c-16 4 -39 8 -50 9 -16 1
-17 -1 -5 -9z"/>
</g>
</svg>
